<?xml version="1.0" encoding="UTF-8"?>
<svg xmlns="http://www.w3.org/2000/svg" xmlns:xlink="http://www.w3.org/1999/xlink" width="37.5pt" height="37.499999pt" viewBox="0 0 37.5 37.499999" version="1.2">
<defs>
<clipPath id="clip1">
  <path d="M 0 0 L 37.007812 0 L 37.007812 34.5 L 0 34.5 Z M 0 0 "/>
</clipPath>
</defs>
<g id="surface1">
<g clip-path="url(#clip1)" clip-rule="nonzero">
<path style=" stroke:none;fill-rule:nonzero;fill:rgb(21.958923%,71.369934%,100%);fill-opacity:1;" d="M 2.40625 23.582031 C 2.34375 23.628906 2.304688 23.652344 2.304688 23.652344 C 2.304688 23.652344 2.347656 23.644531 2.429688 23.617188 C 2.507812 23.585938 2.617188 23.523438 2.726562 23.429688 C 2.835938 23.335938 2.945312 23.203125 3.070312 23.113281 C 3.191406 23.023438 3.339844 23.019531 3.507812 23.066406 C 3.546875 23.078125 3.589844 23.09375 3.617188 23.109375 C 3.636719 23.117188 3.660156 23.136719 3.671875 23.15625 C 3.699219 23.195312 3.699219 23.261719 3.675781 23.324219 C 3.628906 23.453125 3.511719 23.554688 3.398438 23.609375 C 3.285156 23.660156 3.167969 23.671875 3.089844 23.671875 C 3.007812 23.671875 2.960938 23.664062 2.960938 23.664062 C 2.960938 23.664062 3 23.691406 3.082031 23.71875 C 3.160156 23.746094 3.289062 23.773438 3.441406 23.734375 C 3.589844 23.699219 3.765625 23.597656 3.863281 23.402344 C 3.90625 23.308594 3.929688 23.171875 3.859375 23.050781 C 3.824219 22.988281 3.777344 22.945312 3.714844 22.914062 C 3.660156 22.882812 3.609375 22.871094 3.5625 22.859375 C 3.464844 22.835938 3.355469 22.816406 3.246094 22.835938 C 3.132812 22.851562 3.03125 22.902344 2.953125 22.96875 C 2.804688 23.101562 2.726562 23.242188 2.640625 23.347656 C 2.554688 23.453125 2.472656 23.53125 2.40625 23.582031 Z M 2.171875 17.414062 C 2.234375 17.445312 2.335938 17.488281 2.449219 17.527344 C 2.617188 17.582031 2.976562 17.691406 3.457031 17.757812 C 3.488281 17.761719 3.515625 17.765625 3.546875 17.769531 C 3.578125 17.773438 3.605469 17.777344 3.632812 17.78125 C 3.796875 17.800781 3.96875 17.8125 4.152344 17.816406 C 4.199219 17.820312 4.242188 17.820312 4.289062 17.820312 C 4.445312 17.824219 4.597656 17.824219 4.738281 17.824219 C 4.859375 17.824219 4.96875 17.824219 5.074219 17.824219 L 5.132812 17.824219 C 5.492188 17.828125 5.753906 17.839844 5.878906 17.882812 C 5.894531 17.890625 5.90625 17.894531 5.917969 17.898438 C 5.957031 17.921875 6 17.957031 6.050781 18.003906 C 6.144531 18.09375 6.285156 18.214844 6.503906 18.3125 L 6.527344 18.320312 C 6.542969 18.328125 6.558594 18.335938 6.578125 18.34375 C 6.59375 18.347656 6.605469 18.355469 6.621094 18.359375 L 6.652344 18.367188 C 6.679688 18.378906 6.707031 18.382812 6.734375 18.390625 C 6.875 18.425781 7.023438 18.453125 7.1875 18.460938 C 7.429688 18.46875 7.617188 18.4375 7.757812 18.386719 C 7.789062 18.378906 7.820312 18.367188 7.847656 18.355469 C 7.878906 18.339844 7.910156 18.324219 7.9375 18.308594 C 8.015625 18.265625 8.070312 18.214844 8.109375 18.175781 C 8.179688 18.097656 8.214844 18.023438 8.21875 17.972656 C 8.085938 17.855469 7.957031 17.746094 7.828125 17.644531 C 7.757812 17.589844 7.6875 17.535156 7.617188 17.484375 C 7.566406 17.449219 7.519531 17.414062 7.472656 17.382812 C 7.4375 17.359375 7.402344 17.339844 7.367188 17.316406 C 6.960938 17.0625 6.566406 16.910156 6.199219 16.867188 L 6.179688 16.867188 C 6.171875 16.867188 6.160156 16.863281 6.152344 16.863281 C 6.140625 16.863281 6.128906 16.859375 6.117188 16.859375 C 6.089844 16.855469 6.0625 16.855469 6.035156 16.851562 C 5.984375 16.847656 5.933594 16.839844 5.886719 16.835938 C 5.652344 16.816406 5.433594 16.796875 5.21875 16.78125 L 5.203125 16.78125 C 5.164062 16.777344 5.121094 16.777344 5.078125 16.773438 C 5.039062 16.769531 4.996094 16.765625 4.957031 16.761719 C 4.347656 16.71875 3.800781 16.660156 3.1875 16.449219 C 2.90625 16.355469 2.625 16.230469 2.332031 16.074219 C 0.621094 15.167969 0.425781 13.636719 0.40625 13.1875 C 0.402344 13.152344 0.398438 13.132812 0.394531 13.121094 C 0.320312 13.167969 0.140625 13.507812 0.0859375 14.046875 C 0.015625 14.707031 0.078125 16.355469 2.171875 17.414062 Z M 9.113281 30.910156 L 9.097656 30.898438 C 9.164062 31.125 9.277344 31.273438 9.4375 31.476562 L 9.453125 31.496094 C 9.480469 31.53125 9.507812 31.566406 9.539062 31.605469 C 9.546875 31.617188 9.554688 31.628906 9.566406 31.640625 C 9.738281 31.867188 9.945312 32.019531 10.144531 32.152344 C 10.191406 32.179688 10.238281 32.222656 10.289062 32.261719 C 10.324219 32.292969 10.363281 32.328125 10.398438 32.351562 C 10.417969 32.28125 10.449219 32.15625 10.480469 31.972656 C 10.464844 31.953125 10.449219 31.929688 10.429688 31.910156 C 10.382812 31.867188 10.324219 31.828125 10.253906 31.800781 C 10.222656 31.78125 10.183594 31.765625 10.144531 31.753906 C 10.109375 31.746094 10.066406 31.726562 10.019531 31.714844 L 9.941406 31.6875 C 9.910156 31.679688 9.886719 31.660156 9.859375 31.644531 C 9.824219 31.621094 9.792969 31.59375 9.769531 31.5625 C 9.757812 31.550781 9.746094 31.542969 9.734375 31.527344 C 9.722656 31.511719 9.710938 31.496094 9.699219 31.476562 C 9.679688 31.453125 9.667969 31.429688 9.65625 31.402344 L 9.648438 31.378906 C 9.632812 31.34375 9.621094 31.3125 9.613281 31.285156 C 9.570312 31.132812 9.59375 31.023438 9.59375 31.023438 C 9.59375 31.023438 9.667969 31.101562 9.761719 31.207031 C 9.789062 31.234375 9.820312 31.265625 9.851562 31.296875 C 9.871094 31.320312 9.894531 31.339844 9.917969 31.359375 L 9.9375 31.375 C 9.957031 31.390625 9.980469 31.410156 10.003906 31.421875 C 10.015625 31.425781 10.027344 31.433594 10.035156 31.4375 L 10.046875 31.441406 L 10.070312 31.453125 L 10.074219 31.457031 L 10.085938 31.460938 L 10.105469 31.464844 C 10.148438 31.480469 10.195312 31.496094 10.246094 31.527344 C 10.292969 31.550781 10.339844 31.578125 10.378906 31.609375 C 10.433594 31.65625 10.476562 31.710938 10.511719 31.765625 C 10.515625 31.75 10.515625 31.734375 10.519531 31.71875 C 10.5625 31.390625 10.605469 30.980469 10.636719 30.605469 C 10.644531 30.488281 10.65625 30.375 10.664062 30.265625 C 10.667969 30.171875 10.675781 30.082031 10.679688 30 C 10.683594 29.945312 10.695312 29.886719 10.703125 29.824219 C 10.710938 29.785156 10.714844 29.75 10.71875 29.71875 C 10.738281 29.542969 10.71875 29.472656 10.621094 29.4375 C 10.523438 29.40625 10.425781 29.382812 10.332031 29.363281 C 10.25 29.34375 10.167969 29.328125 10.09375 29.316406 L 10.234375 29.441406 L 10.230469 29.441406 L 10.066406 29.449219 L 9.992188 29.523438 C 10.007812 29.539062 10.019531 29.554688 10.023438 29.566406 C 10.035156 29.582031 10.035156 29.574219 10.050781 29.585938 L 10.25 29.648438 L 10.085938 29.777344 C 10.0625 29.796875 10.027344 29.8125 9.988281 29.828125 C 9.992188 29.855469 9.996094 29.875 10 29.882812 L 9.914062 29.929688 L 9.886719 30.042969 L 9.871094 30.039062 C 9.875 30.078125 9.867188 30.09375 9.863281 30.105469 L 9.839844 30.179688 L 9.800781 30.179688 C 9.765625 30.226562 9.703125 30.335938 9.652344 30.425781 L 9.601562 30.515625 L 9.539062 30.484375 L 9.546875 30.554688 L 9.480469 30.589844 C 9.433594 30.613281 9.386719 30.605469 9.34375 30.59375 L 9.34375 30.601562 L 9.320312 30.710938 L 9.3125 30.710938 L 9.316406 30.71875 L 9.210938 30.808594 L 9.160156 30.785156 L 9.148438 30.824219 Z M 4.042969 24.738281 C 4.148438 24.679688 4.285156 24.609375 4.417969 24.492188 C 4.496094 24.425781 4.570312 24.324219 4.679688 24.246094 C 4.734375 24.207031 4.792969 24.171875 4.851562 24.140625 C 4.882812 24.125 4.910156 24.109375 4.929688 24.09375 C 4.949219 24.078125 4.9375 24.085938 4.9375 24.082031 L 4.9375 24.078125 L 4.929688 24.050781 L 4.925781 24.046875 C 4.921875 24.046875 4.910156 24.039062 4.886719 24.039062 C 4.84375 24.035156 4.773438 24.046875 4.730469 24.066406 C 4.628906 24.117188 4.550781 24.214844 4.464844 24.335938 C 4.378906 24.460938 4.265625 24.574219 4.144531 24.667969 C 4.113281 24.695312 4.078125 24.714844 4.042969 24.738281 Z M 2.007812 23.484375 C 2.023438 23.695312 2.066406 23.878906 2.1875 24.027344 C 2.246094 24.105469 2.328125 24.191406 2.386719 24.296875 C 2.457031 24.402344 2.488281 24.519531 2.523438 24.597656 C 2.53125 24.613281 2.546875 24.628906 2.554688 24.648438 C 2.648438 24.726562 2.804688 24.8125 3 24.839844 C 3.203125 24.867188 3.445312 24.824219 3.675781 24.710938 C 3.910156 24.597656 4.128906 24.429688 4.289062 24.207031 C 4.375 24.09375 4.480469 23.949219 4.648438 23.878906 C 4.738281 23.847656 4.816406 23.839844 4.910156 23.847656 C 4.957031 23.855469 5.015625 23.871094 5.0625 23.921875 C 5.082031 23.949219 5.097656 23.980469 5.105469 24.007812 L 5.109375 24.035156 C 5.113281 24.050781 5.113281 24.066406 5.113281 24.082031 C 5.117188 24.148438 5.058594 24.214844 5.019531 24.230469 C 4.980469 24.253906 4.949219 24.265625 4.917969 24.28125 C 4.859375 24.304688 4.804688 24.328125 4.753906 24.355469 C 4.648438 24.410156 4.566406 24.492188 4.472656 24.5625 C 4.285156 24.691406 4.109375 24.75 3.992188 24.800781 C 3.9375 24.816406 3.898438 24.828125 3.867188 24.839844 C 3.832031 24.859375 3.796875 24.878906 3.757812 24.894531 C 3.492188 25.007812 3.203125 25.03125 2.972656 24.972656 C 2.921875 24.957031 2.875 24.9375 2.832031 24.917969 C 2.863281 24.9375 2.894531 24.957031 2.929688 24.976562 C 3.109375 25.058594 3.3125 25.101562 3.515625 25.113281 C 3.566406 25.121094 3.625 25.121094 3.671875 25.121094 C 3.71875 25.117188 3.769531 25.121094 3.816406 25.105469 C 3.910156 25.089844 4.003906 25.050781 4.097656 25.007812 C 4.285156 24.914062 4.457031 24.796875 4.644531 24.675781 C 4.828125 24.5625 5.035156 24.476562 5.15625 24.316406 C 5.277344 24.148438 5.21875 23.921875 5.148438 23.726562 C 5.121094 23.625 5.054688 23.554688 4.964844 23.554688 C 4.875 23.550781 4.777344 23.59375 4.691406 23.644531 C 4.601562 23.695312 4.519531 23.753906 4.433594 23.820312 L 4.398438 23.847656 L 4.375 23.859375 L 4.363281 23.867188 L 4.359375 23.867188 C 4.363281 23.867188 4.335938 23.882812 4.300781 23.871094 C 4.257812 23.859375 4.242188 23.820312 4.242188 23.816406 L 4.242188 23.808594 C 4.253906 23.800781 4.269531 23.789062 4.28125 23.777344 C 4.300781 23.757812 4.324219 23.730469 4.34375 23.707031 L 4.363281 23.6875 C 4.375 23.675781 4.382812 23.664062 4.390625 23.652344 C 4.433594 23.601562 4.472656 23.539062 4.511719 23.476562 C 4.53125 23.433594 4.550781 23.386719 4.570312 23.34375 C 4.589844 23.296875 4.597656 23.242188 4.613281 23.191406 C 4.625 23.140625 4.625 23.070312 4.625 23.011719 L 4.617188 22.9375 L 4.613281 22.921875 L 4.613281 22.914062 L 4.605469 22.898438 L 4.601562 22.886719 L 4.585938 22.847656 C 4.570312 22.800781 4.546875 22.75 4.519531 22.707031 C 4.488281 22.652344 4.449219 22.601562 4.410156 22.554688 C 4.324219 22.472656 4.226562 22.398438 4.117188 22.359375 C 4.066406 22.335938 4.011719 22.320312 3.953125 22.3125 C 3.894531 22.304688 3.839844 22.292969 3.796875 22.296875 C 3.742188 22.296875 3.707031 22.289062 3.644531 22.296875 C 3.59375 22.304688 3.546875 22.3125 3.5 22.316406 C 3.40625 22.339844 3.320312 22.363281 3.25 22.402344 C 3.234375 22.40625 3.222656 22.414062 3.210938 22.417969 C 3.199219 22.425781 3.1875 22.429688 3.179688 22.4375 L 3.15625 22.449219 C 3.050781 22.433594 2.949219 22.40625 2.851562 22.375 C 2.738281 22.335938 2.617188 22.359375 2.507812 22.40625 C 2.359375 22.558594 2.222656 22.726562 2.125 22.90625 C 2.074219 22.996094 2.035156 23.09375 2.015625 23.191406 C 2.003906 23.238281 2 23.285156 2 23.332031 C 2 23.386719 2.003906 23.433594 2.007812 23.484375 Z M 5.394531 20.335938 C 5.480469 20.222656 5.566406 20.105469 5.640625 19.972656 C 5.714844 19.847656 5.78125 19.714844 5.855469 19.597656 C 6.003906 19.355469 6.195312 19.152344 6.425781 19.074219 C 6.539062 19.03125 6.65625 19.019531 6.761719 19.035156 C 6.867188 19.046875 6.964844 19.09375 7.050781 19.148438 C 7.21875 19.261719 7.335938 19.40625 7.414062 19.503906 C 7.488281 19.609375 7.53125 19.667969 7.53125 19.667969 C 7.53125 19.667969 7.527344 19.652344 7.515625 19.617188 C 7.507812 19.585938 7.492188 19.535156 7.464844 19.476562 C 7.414062 19.355469 7.332031 19.179688 7.152344 19.019531 C 7.0625 18.941406 6.941406 18.867188 6.800781 18.835938 C 6.65625 18.804688 6.496094 18.820312 6.351562 18.871094 C 6.207031 18.917969 6.066406 19.011719 5.957031 19.121094 C 5.84375 19.230469 5.753906 19.359375 5.679688 19.496094 C 5.605469 19.628906 5.546875 19.761719 5.480469 19.890625 C 5.417969 20.011719 5.34375 20.132812 5.269531 20.238281 C 5.113281 20.457031 4.929688 20.628906 4.746094 20.742188 C 4.65625 20.796875 4.566406 20.839844 4.484375 20.867188 C 4.402344 20.898438 4.324219 20.914062 4.261719 20.921875 C 4.199219 20.933594 4.148438 20.9375 4.113281 20.941406 C 4.078125 20.945312 4.0625 20.945312 4.0625 20.945312 C 4.0625 20.945312 4.078125 20.945312 4.113281 20.949219 C 4.148438 20.953125 4.199219 20.957031 4.265625 20.953125 C 4.328125 20.953125 4.410156 20.941406 4.5 20.921875 C 4.589844 20.90625 4.6875 20.871094 4.792969 20.824219 C 5 20.726562 5.214844 20.554688 5.394531 20.335938 Z M 5.617188 20.539062 C 5.78125 20.460938 5.9375 20.414062 6.070312 20.183594 C 6.078125 20.21875 6.089844 20.253906 6.113281 20.28125 C 6.164062 20.339844 6.242188 20.367188 6.332031 20.363281 C 6.367188 20.34375 6.402344 20.332031 6.441406 20.308594 C 6.511719 20.273438 6.582031 20.234375 6.648438 20.183594 C 6.757812 20.054688 6.789062 19.890625 6.699219 19.789062 C 6.679688 19.761719 6.652344 19.746094 6.621094 19.730469 C 6.757812 19.6875 6.902344 19.679688 7.03125 19.777344 C 6.796875 19.484375 6.460938 19.648438 6.269531 19.785156 C 6.164062 19.855469 6.054688 19.96875 5.992188 20.082031 C 5.863281 20.324219 5.753906 20.445312 5.582031 20.527344 C 5.582031 20.53125 5.59375 20.535156 5.617188 20.539062 Z M 8.765625 20.070312 C 8.859375 20.140625 8.957031 20.199219 9.058594 20.253906 C 9.160156 20.308594 9.269531 20.355469 9.375 20.398438 C 9.597656 20.472656 9.816406 20.527344 10.039062 20.585938 C 10.484375 20.695312 10.945312 20.78125 11.410156 20.761719 C 11.527344 20.757812 11.644531 20.746094 11.757812 20.722656 C 11.875 20.703125 11.988281 20.671875 12.097656 20.636719 C 12.320312 20.566406 12.53125 20.464844 12.734375 20.355469 C 12.761719 20.339844 12.769531 20.304688 12.753906 20.28125 L 12.734375 20.257812 L 12.730469 20.257812 C 12.34375 20.058594 11.96875 19.820312 11.640625 19.53125 C 11.5625 19.457031 11.484375 19.378906 11.414062 19.296875 C 11.347656 19.21875 11.277344 19.125 11.195312 19.042969 C 11.039062 18.882812 10.867188 18.738281 10.679688 18.617188 C 10.304688 18.371094 9.882812 18.179688 9.433594 18.144531 C 9.320312 18.136719 9.207031 18.140625 9.09375 18.15625 C 8.984375 18.171875 8.875 18.207031 8.769531 18.242188 C 8.664062 18.273438 8.5625 18.320312 8.460938 18.363281 C 8.359375 18.414062 8.265625 18.472656 8.179688 18.539062 C 8.269531 18.476562 8.367188 18.421875 8.464844 18.378906 C 8.570312 18.335938 8.671875 18.296875 8.78125 18.269531 C 8.886719 18.234375 8.992188 18.207031 9.101562 18.199219 C 9.210938 18.1875 9.320312 18.1875 9.425781 18.199219 C 9.863281 18.246094 10.273438 18.4375 10.628906 18.6875 C 10.808594 18.8125 10.976562 18.953125 11.128906 19.109375 C 11.203125 19.1875 11.265625 19.273438 11.339844 19.359375 C 11.410156 19.449219 11.492188 19.527344 11.574219 19.605469 C 11.882812 19.882812 12.226562 20.109375 12.589844 20.304688 C 12.421875 20.394531 12.246094 20.476562 12.066406 20.535156 C 11.960938 20.574219 11.851562 20.601562 11.742188 20.621094 C 11.628906 20.644531 11.519531 20.65625 11.40625 20.660156 C 10.957031 20.6875 10.503906 20.601562 10.058594 20.503906 C 9.839844 20.449219 9.613281 20.398438 9.398438 20.332031 C 9.292969 20.292969 9.1875 20.25 9.089844 20.199219 C 8.988281 20.148438 8.890625 20.089844 8.796875 20.027344 C 8.421875 19.773438 8.121094 19.410156 7.929688 18.996094 C 8.105469 19.417969 8.390625 19.796875 8.765625 20.070312 Z M 8.003906 18.886719 C 7.960938 18.90625 8.085938 19.144531 8.371094 19.484375 C 8.828125 20.023438 9.722656 20.257812 10.601562 20.429688 C 11.476562 20.601562 12.148438 20.371094 12.148438 20.371094 C 12.148438 20.371094 11.660156 20.09375 10.503906 19.148438 C 9.34375 18.203125 8.195312 18.789062 8.195312 18.789062 C 8.160156 18.804688 8.105469 18.839844 8.003906 18.886719 Z M 1.875 23.152344 C 1.914062 23.042969 1.972656 22.941406 2.035156 22.851562 C 2.167969 22.671875 2.328125 22.523438 2.488281 22.378906 L 2.496094 22.371094 C 2.503906 22.371094 2.515625 22.367188 2.527344 22.363281 C 2.535156 22.359375 2.546875 22.359375 2.554688 22.355469 C 2.636719 22.277344 2.71875 22.199219 2.800781 22.117188 C 2.996094 21.929688 3.199219 21.734375 3.335938 21.492188 C 3.507812 21.167969 3.621094 20.816406 3.742188 20.476562 C 3.863281 20.128906 3.984375 19.785156 4.125 19.449219 C 4.21875 19.230469 4.320312 19.015625 4.433594 18.804688 C 4.445312 18.785156 4.453125 18.769531 4.464844 18.75 C 4.472656 18.730469 4.484375 18.714844 4.496094 18.695312 C 4.503906 18.675781 4.519531 18.65625 4.53125 18.636719 C 4.675781 18.386719 4.84375 18.152344 5.035156 17.933594 C 5.453125 17.9375 5.769531 17.945312 5.867188 17.996094 C 5.894531 18.011719 5.929688 18.046875 5.976562 18.085938 C 6.0625 18.167969 6.1875 18.28125 6.378906 18.375 C 6.394531 18.386719 6.421875 18.394531 6.441406 18.402344 C 6.464844 18.414062 6.488281 18.425781 6.511719 18.433594 C 6.539062 18.445312 6.558594 18.457031 6.585938 18.464844 C 6.761719 18.523438 6.964844 18.558594 7.183594 18.570312 C 7.546875 18.582031 7.792969 18.511719 7.960938 18.421875 C 7.992188 18.40625 8.015625 18.390625 8.042969 18.371094 C 8.070312 18.351562 8.097656 18.332031 8.121094 18.316406 C 8.148438 18.292969 8.171875 18.269531 8.1875 18.25 C 8.285156 18.148438 8.335938 18.03125 8.328125 17.941406 L 8.324219 17.921875 L 8.308594 17.910156 C 8.269531 17.871094 8.226562 17.835938 8.1875 17.800781 C 8.152344 17.761719 8.109375 17.71875 8.058594 17.675781 C 7.976562 17.59375 7.875 17.503906 7.761719 17.417969 C 7.703125 17.371094 7.644531 17.324219 7.578125 17.285156 C 7.519531 17.246094 7.460938 17.207031 7.398438 17.167969 L 7.382812 17.160156 C 7.339844 17.136719 7.296875 17.117188 7.253906 17.09375 C 7.230469 17.082031 7.203125 17.066406 7.179688 17.054688 C 7.132812 17.027344 7.082031 17.007812 7.03125 16.988281 C 7.011719 16.980469 6.992188 16.972656 6.972656 16.964844 C 6.902344 16.941406 6.839844 16.910156 6.773438 16.898438 L 6.769531 16.898438 C 6.613281 16.839844 6.460938 16.800781 6.308594 16.777344 C 6.347656 16.75 6.382812 16.722656 6.417969 16.695312 C 6.4375 16.679688 6.457031 16.664062 6.472656 16.652344 C 6.492188 16.640625 6.507812 16.625 6.527344 16.613281 C 6.691406 16.492188 6.859375 16.378906 7.035156 16.277344 C 7.0625 16.261719 7.089844 16.246094 7.117188 16.226562 C 7.132812 16.21875 7.152344 16.207031 7.167969 16.195312 C 7.1875 16.1875 7.203125 16.175781 7.222656 16.164062 C 7.789062 15.828125 8.355469 15.484375 8.890625 15.09375 C 9.488281 14.667969 10.058594 14.203125 10.6875 13.835938 C 11.3125 13.460938 11.996094 13.171875 12.71875 13.054688 C 13.4375 12.9375 14.175781 12.972656 14.894531 13.097656 C 15.613281 13.21875 16.320312 13.414062 17.015625 13.640625 C 17.191406 13.695312 17.367188 13.757812 17.535156 13.8125 C 17.707031 13.878906 17.878906 13.945312 18.039062 14.023438 C 18.363281 14.183594 18.671875 14.375 18.960938 14.597656 C 19.535156 15.042969 20.027344 15.582031 20.472656 16.160156 C 20.875 16.6875 21.242188 17.234375 21.609375 17.789062 L 21.609375 10.875 L 15.609375 10.875 L 26.550781 -0.00390625 L 37.488281 10.875 L 31.488281 10.875 L 31.488281 34.492188 L 21.609375 34.492188 L 21.609375 32.203125 C 21.5 32.1875 21.394531 32.171875 21.285156 32.148438 C 21.214844 32.136719 21.148438 32.125 21.074219 32.109375 C 21.003906 32.09375 20.929688 32.074219 20.855469 32.054688 C 20.542969 31.980469 20.21875 31.894531 19.882812 31.78125 C 19.21875 31.554688 18.554688 31.253906 17.90625 30.894531 C 16.386719 30.050781 15.28125 29.1875 14.558594 28.292969 L 14.574219 28.285156 L 14.589844 28.273438 L 14.914062 27.992188 C 15.023438 27.898438 15.136719 27.808594 15.25 27.71875 C 15.304688 27.671875 15.359375 27.625 15.414062 27.582031 L 15.582031 27.453125 C 15.695312 27.363281 15.808594 27.277344 15.929688 27.195312 L 16.105469 27.070312 C 16.164062 27.027344 16.21875 26.996094 16.277344 26.957031 C 16.398438 26.886719 16.527344 26.820312 16.652344 26.75 C 16.71875 26.710938 16.78125 26.671875 16.847656 26.628906 C 16.90625 26.589844 16.972656 26.535156 17.03125 26.488281 L 17.109375 26.410156 C 17.140625 26.378906 17.164062 26.351562 17.191406 26.320312 C 17.214844 26.289062 17.234375 26.257812 17.253906 26.226562 C 17.726562 26.582031 18.214844 26.917969 18.71875 27.230469 C 18.863281 27.320312 19.015625 27.402344 19.164062 27.488281 C 19.199219 27.507812 19.230469 27.53125 19.265625 27.550781 C 19.304688 27.570312 19.339844 27.59375 19.375 27.613281 C 19.429688 27.644531 19.484375 27.675781 19.539062 27.707031 C 19.816406 27.855469 20.097656 28 20.386719 28.132812 C 20.671875 28.265625 20.964844 28.386719 21.257812 28.503906 L 21.609375 28.628906 L 21.609375 28.410156 L 21.332031 28.3125 C 21.042969 28.199219 20.753906 28.078125 20.472656 27.945312 C 20.191406 27.8125 19.910156 27.671875 19.636719 27.523438 C 19.554688 27.480469 19.476562 27.429688 19.394531 27.382812 C 19.359375 27.363281 19.324219 27.34375 19.289062 27.324219 C 19.253906 27.304688 19.21875 27.28125 19.1875 27.261719 C 19.066406 27.191406 18.945312 27.128906 18.828125 27.054688 C 18.316406 26.738281 17.824219 26.394531 17.34375 26.03125 C 17.464844 25.871094 17.574219 25.695312 17.652344 25.515625 C 17.714844 25.371094 17.769531 25.226562 17.820312 25.082031 C 17.835938 25.035156 17.851562 24.988281 17.863281 24.945312 C 17.871094 24.925781 17.875 24.910156 17.882812 24.894531 C 17.890625 24.867188 17.894531 24.835938 17.902344 24.808594 C 17.949219 24.632812 17.984375 24.457031 18.003906 24.285156 C 18.03125 24.089844 18.042969 23.90625 18.039062 23.734375 C 18.035156 23.390625 17.972656 23.109375 17.917969 22.917969 C 17.863281 22.730469 17.808594 22.628906 17.808594 22.628906 C 17.808594 22.628906 17.847656 22.734375 17.878906 22.929688 C 17.914062 23.121094 17.933594 23.398438 17.914062 23.730469 C 17.910156 23.898438 17.886719 24.078125 17.851562 24.261719 C 17.816406 24.449219 17.757812 24.640625 17.695312 24.835938 C 17.691406 24.859375 17.679688 24.882812 17.671875 24.90625 C 17.65625 24.953125 17.636719 25 17.621094 25.046875 C 17.601562 25.09375 17.582031 25.144531 17.5625 25.191406 C 17.53125 25.269531 17.496094 25.347656 17.460938 25.429688 C 17.367188 25.625 17.257812 25.804688 17.117188 25.96875 C 16.84375 26.304688 16.472656 26.546875 16.113281 26.773438 C 15.9375 26.886719 15.761719 27.003906 15.609375 27.128906 C 15.507812 27.214844 15.417969 27.296875 15.332031 27.382812 L 15.285156 27.417969 C 15.222656 27.464844 15.171875 27.507812 15.113281 27.554688 C 15.003906 27.648438 14.890625 27.734375 14.78125 27.832031 L 14.464844 28.101562 C 14.453125 28.109375 14.4375 28.113281 14.421875 28.117188 C 14.382812 28.132812 14.347656 28.148438 14.3125 28.160156 C 14.277344 28.175781 14.242188 28.1875 14.207031 28.199219 C 14.042969 28.261719 13.882812 28.316406 13.71875 28.339844 C 13.65625 28.351562 13.589844 28.359375 13.53125 28.359375 C 13.460938 28.359375 13.394531 28.359375 13.332031 28.351562 C 13.210938 28.339844 13.078125 28.308594 12.953125 28.277344 C 12.441406 28.121094 11.972656 27.839844 11.5 27.5625 C 11.261719 27.421875 11.015625 27.289062 10.777344 27.15625 C 10.539062 27.023438 10.296875 26.890625 10.050781 26.761719 C 9.804688 26.632812 9.558594 26.511719 9.296875 26.402344 C 9.039062 26.292969 8.773438 26.203125 8.480469 26.160156 L 8.449219 26.160156 C 8.394531 26.164062 8.324219 26.222656 8.308594 26.277344 C 8.289062 26.328125 8.289062 26.367188 8.289062 26.402344 C 8.292969 26.472656 8.308594 26.53125 8.324219 26.585938 C 8.359375 26.699219 8.398438 26.804688 8.441406 26.90625 L 8.707031 27.507812 C 8.820312 27.738281 9.007812 27.894531 9.183594 28.027344 C 9.359375 28.15625 9.519531 28.289062 9.609375 28.457031 C 9.628906 28.5 9.617188 28.574219 9.566406 28.675781 C 9.550781 28.703125 9.539062 28.738281 9.527344 28.777344 L 9.519531 28.773438 L 9.523438 28.785156 C 9.515625 28.808594 9.507812 28.832031 9.503906 28.859375 C 9.5 28.898438 9.503906 28.941406 9.511719 28.984375 C 9.519531 29 9.527344 29.023438 9.535156 29.039062 L 9.550781 29.078125 C 9.570312 29.113281 9.59375 29.148438 9.625 29.183594 C 9.632812 29.195312 9.652344 29.214844 9.683594 29.246094 L 8.914062 29.28125 L 9.695312 29.460938 C 9.695312 29.460938 9.722656 29.46875 9.753906 29.476562 C 9.734375 29.519531 9.726562 29.554688 9.734375 29.589844 C 9.742188 29.621094 9.757812 29.648438 9.785156 29.667969 L 9.746094 29.679688 L 9.757812 29.769531 C 9.757812 29.789062 9.761719 29.804688 9.761719 29.820312 C 9.75 29.824219 9.734375 29.824219 9.726562 29.824219 L 9.589844 29.832031 L 9.628906 29.964844 C 9.632812 29.984375 9.640625 30.007812 9.644531 30.027344 C 9.609375 30.066406 9.566406 30.128906 9.507812 30.234375 C 9.4375 30.207031 9.359375 30.179688 9.296875 30.226562 L 9.25 30.261719 L 9.25 30.3125 L 9.058594 30.207031 L 9.109375 30.441406 C 9.113281 30.460938 9.117188 30.484375 9.121094 30.503906 L 9.011719 30.4375 L 9.003906 30.492188 C 8.988281 30.480469 8.976562 30.472656 8.960938 30.464844 L 8.722656 30.339844 L 8.734375 30.378906 C 8.683594 30.367188 8.636719 30.359375 8.585938 30.34375 C 8.371094 30.285156 8.144531 30.261719 7.980469 30.171875 C 7.8125 30.082031 7.691406 29.914062 7.589844 29.726562 C 7.5 29.546875 7.429688 29.339844 7.386719 29.136719 C 7.339844 28.929688 7.34375 28.71875 7.300781 28.488281 C 7.25 28.253906 7.140625 28.046875 7.007812 27.863281 C 6.945312 27.773438 6.878906 27.683594 6.8125 27.597656 C 6.746094 27.507812 6.664062 27.421875 6.585938 27.34375 C 6.425781 27.1875 6.261719 27.042969 6.101562 26.894531 C 5.945312 26.746094 5.789062 26.597656 5.652344 26.433594 C 5.515625 26.273438 5.386719 26.097656 5.335938 25.90625 C 5.277344 25.71875 5.339844 25.523438 5.492188 25.398438 C 5.640625 25.273438 5.851562 25.210938 6.0625 25.148438 C 6.265625 25.085938 6.496094 25.03125 6.6875 24.882812 C 6.871094 24.730469 7 24.550781 7.136719 24.386719 C 7.277344 24.222656 7.421875 24.054688 7.609375 24.003906 C 7.800781 23.957031 8.023438 23.972656 8.238281 23.992188 C 8.667969 24.039062 9.097656 24.125 9.527344 24.207031 C 9.960938 24.292969 10.390625 24.382812 10.824219 24.449219 L 10.9375 24.464844 L 10.886719 24.363281 C 10.832031 24.25 10.78125 24.128906 10.730469 24.007812 C 10.6875 23.886719 10.632812 23.769531 10.59375 23.644531 L 10.476562 23.277344 C 10.445312 23.148438 10.417969 23.023438 10.402344 22.898438 C 10.371094 22.644531 10.375 22.386719 10.40625 22.128906 L 10.457031 21.742188 C 10.472656 21.613281 10.496094 21.488281 10.515625 21.359375 L 10.523438 21.316406 L 10.507812 21.308594 C 10.484375 21.242188 10.457031 21.171875 10.410156 21.113281 C 10.359375 21.046875 10.289062 20.996094 10.21875 20.957031 C 10.070312 20.882812 9.910156 20.855469 9.746094 20.859375 L 9.710938 20.863281 L 9.703125 20.898438 C 9.613281 21.433594 9.417969 21.949219 9.101562 22.386719 C 8.785156 22.828125 8.355469 23.179688 7.882812 23.445312 C 7.40625 23.710938 6.886719 23.894531 6.359375 24.042969 C 6.097656 24.117188 5.832031 24.175781 5.5625 24.25 C 5.433594 24.289062 5.304688 24.339844 5.183594 24.398438 C 5.164062 24.421875 5.144531 24.441406 5.125 24.460938 C 5.085938 24.496094 5.042969 24.527344 5.003906 24.558594 C 4.992188 24.566406 4.980469 24.574219 4.96875 24.582031 L 4.703125 24.765625 C 4.535156 24.890625 4.363281 25.03125 4.171875 25.148438 C 4.078125 25.203125 3.972656 25.253906 3.855469 25.285156 C 3.800781 25.300781 3.738281 25.304688 3.675781 25.3125 C 3.617188 25.3125 3.570312 25.316406 3.507812 25.3125 C 3.28125 25.308594 3.054688 25.265625 2.839844 25.175781 C 2.625 25.082031 2.421875 24.925781 2.3125 24.699219 C 2.257812 24.582031 2.234375 24.488281 2.1875 24.414062 C 2.140625 24.332031 2.074219 24.257812 2.003906 24.160156 C 1.855469 23.96875 1.8125 23.710938 1.824219 23.492188 C 1.824219 23.4375 1.824219 23.375 1.832031 23.324219 C 1.84375 23.265625 1.859375 23.203125 1.875 23.152344 Z M 7.003906 16.230469 C 7.023438 16.21875 7.042969 16.207031 7.0625 16.195312 C 6.800781 16.035156 6.558594 15.898438 6.324219 15.761719 C 5.453125 15.265625 4.765625 14.875 4.039062 13.886719 C 2.894531 12.335938 3.382812 10.871094 3.558594 10.457031 C 3.574219 10.421875 3.578125 10.402344 3.578125 10.390625 C 3.492188 10.402344 3.183594 10.632812 2.894531 11.09375 C 2.546875 11.65625 1.886719 13.171875 3.3125 15.027344 C 3.449219 15.207031 4.066406 15.828125 5.042969 16.304688 C 5.183594 16.375 5.316406 16.4375 5.441406 16.496094 C 5.492188 16.523438 5.539062 16.546875 5.589844 16.570312 C 5.621094 16.582031 5.648438 16.597656 5.679688 16.613281 C 5.707031 16.625 5.738281 16.640625 5.765625 16.652344 C 5.816406 16.679688 5.867188 16.707031 5.914062 16.730469 C 6.011719 16.738281 6.109375 16.746094 6.214844 16.761719 L 6.242188 16.765625 C 6.277344 16.734375 6.316406 16.707031 6.355469 16.679688 C 6.371094 16.664062 6.390625 16.648438 6.410156 16.636719 C 6.429688 16.621094 6.445312 16.605469 6.464844 16.59375 C 6.640625 16.464844 6.820312 16.339844 7.003906 16.230469 Z M 4.484375 18.636719 C 3.664062 18.632812 3.101562 18.335938 3.101562 18.335938 C 3.101562 18.335938 3.359375 18.238281 3.960938 17.921875 C 3.789062 17.910156 3.632812 17.894531 3.480469 17.871094 C 3.199219 18.03125 2.941406 18.136719 2.808594 18.1875 C 3.351562 18.597656 3.804688 18.710938 4.449219 18.695312 C 4.460938 18.675781 4.472656 18.65625 4.484375 18.636719 Z M 5.527344 16.695312 C 5.542969 16.691406 5.558594 16.6875 5.578125 16.683594 C 5.589844 16.691406 5.601562 16.695312 5.613281 16.703125 C 5.585938 16.699219 5.554688 16.699219 5.527344 16.695312 "/>
</g>
<path style=" stroke:none;fill-rule:nonzero;fill:rgb(21.958923%,71.369934%,100%);fill-opacity:1;" d="M 7.003906 16.230469 C 6.820312 16.339844 6.640625 16.464844 6.464844 16.59375 C 6.445312 16.605469 6.429688 16.621094 6.410156 16.636719 C 6.390625 16.648438 6.371094 16.664062 6.355469 16.679688 C 6.316406 16.707031 6.277344 16.734375 6.242188 16.765625 L 6.214844 16.761719 C 6.109375 16.746094 6.011719 16.738281 5.914062 16.730469 C 5.867188 16.707031 5.816406 16.679688 5.765625 16.652344 C 5.738281 16.640625 5.707031 16.625 5.679688 16.613281 C 5.648438 16.597656 5.621094 16.582031 5.589844 16.570312 C 5.539062 16.546875 5.492188 16.523438 5.441406 16.496094 C 5.316406 16.4375 5.183594 16.375 5.042969 16.304688 C 4.066406 15.828125 3.449219 15.207031 3.3125 15.027344 C 1.886719 13.171875 2.546875 11.65625 2.894531 11.09375 C 3.183594 10.632812 3.492188 10.402344 3.578125 10.390625 C 3.578125 10.402344 3.574219 10.421875 3.558594 10.457031 C 3.382812 10.871094 2.894531 12.335938 4.039062 13.886719 C 4.765625 14.875 5.453125 15.265625 6.324219 15.761719 C 6.558594 15.898438 6.800781 16.035156 7.0625 16.195312 C 7.042969 16.207031 7.023438 16.21875 7.003906 16.230469 "/>
<path style=" stroke:none;fill-rule:nonzero;fill:rgb(21.958923%,71.369934%,100%);fill-opacity:1;" d="M 4.144531 24.667969 C 4.265625 24.574219 4.378906 24.460938 4.464844 24.335938 C 4.550781 24.214844 4.628906 24.117188 4.730469 24.066406 C 4.773438 24.046875 4.84375 24.035156 4.886719 24.039062 C 4.910156 24.039062 4.921875 24.046875 4.925781 24.046875 L 4.929688 24.050781 L 4.9375 24.078125 L 4.9375 24.082031 C 4.9375 24.085938 4.949219 24.078125 4.929688 24.09375 C 4.910156 24.109375 4.882812 24.125 4.851562 24.140625 C 4.792969 24.171875 4.734375 24.207031 4.679688 24.246094 C 4.570312 24.324219 4.496094 24.425781 4.417969 24.492188 C 4.285156 24.609375 4.148438 24.679688 4.042969 24.738281 C 4.078125 24.714844 4.113281 24.695312 4.144531 24.667969 Z M 2 23.332031 C 2 23.285156 2.003906 23.238281 2.015625 23.191406 C 2.035156 23.09375 2.074219 22.996094 2.125 22.90625 C 2.222656 22.726562 2.359375 22.558594 2.507812 22.40625 C 2.617188 22.359375 2.738281 22.335938 2.851562 22.375 C 2.949219 22.40625 3.050781 22.433594 3.15625 22.449219 L 3.179688 22.4375 C 3.1875 22.429688 3.199219 22.425781 3.210938 22.417969 C 3.222656 22.414062 3.234375 22.40625 3.25 22.402344 C 3.320312 22.363281 3.40625 22.339844 3.5 22.316406 C 3.546875 22.3125 3.59375 22.304688 3.644531 22.296875 C 3.707031 22.289062 3.742188 22.296875 3.796875 22.296875 C 3.839844 22.292969 3.894531 22.304688 3.953125 22.3125 C 4.011719 22.320312 4.066406 22.335938 4.117188 22.359375 C 4.226562 22.398438 4.324219 22.472656 4.410156 22.554688 C 4.449219 22.601562 4.488281 22.652344 4.519531 22.707031 C 4.546875 22.75 4.570312 22.800781 4.585938 22.847656 L 4.601562 22.886719 L 4.605469 22.898438 L 4.613281 22.914062 L 4.613281 22.921875 L 4.617188 22.9375 L 4.625 23.011719 C 4.625 23.070312 4.625 23.140625 4.613281 23.191406 C 4.597656 23.242188 4.589844 23.296875 4.570312 23.34375 C 4.550781 23.386719 4.53125 23.433594 4.511719 23.476562 C 4.472656 23.539062 4.433594 23.601562 4.390625 23.652344 C 4.382812 23.664062 4.375 23.675781 4.363281 23.6875 L 4.34375 23.707031 C 4.324219 23.730469 4.300781 23.757812 4.28125 23.777344 C 4.269531 23.789062 4.253906 23.800781 4.242188 23.808594 L 4.242188 23.816406 C 4.242188 23.820312 4.257812 23.859375 4.300781 23.871094 C 4.335938 23.882812 4.363281 23.867188 4.359375 23.867188 L 4.363281 23.867188 L 4.375 23.859375 L 4.398438 23.847656 L 4.433594 23.820312 C 4.519531 23.753906 4.601562 23.695312 4.691406 23.644531 C 4.777344 23.59375 4.875 23.550781 4.964844 23.554688 C 5.054688 23.554688 5.121094 23.625 5.148438 23.726562 C 5.21875 23.921875 5.277344 24.148438 5.15625 24.316406 C 5.035156 24.476562 4.828125 24.5625 4.644531 24.675781 C 4.457031 24.796875 4.285156 24.914062 4.097656 25.007812 C 4.003906 25.050781 3.910156 25.089844 3.816406 25.105469 C 3.769531 25.121094 3.71875 25.117188 3.671875 25.121094 C 3.625 25.121094 3.566406 25.121094 3.515625 25.113281 C 3.3125 25.101562 3.109375 25.058594 2.929688 24.976562 C 2.894531 24.957031 2.863281 24.9375 2.832031 24.917969 C 2.875 24.9375 2.921875 24.957031 2.972656 24.972656 C 3.203125 25.03125 3.492188 25.007812 3.757812 24.894531 C 3.796875 24.878906 3.832031 24.859375 3.867188 24.839844 C 3.898438 24.828125 3.9375 24.816406 3.992188 24.800781 C 4.109375 24.75 4.285156 24.691406 4.472656 24.5625 C 4.566406 24.492188 4.648438 24.410156 4.753906 24.355469 C 4.804688 24.328125 4.859375 24.304688 4.917969 24.28125 C 4.949219 24.265625 4.980469 24.253906 5.019531 24.230469 C 5.058594 24.214844 5.117188 24.148438 5.113281 24.082031 C 5.113281 24.066406 5.113281 24.050781 5.109375 24.035156 L 5.105469 24.007812 C 5.097656 23.980469 5.082031 23.949219 5.0625 23.921875 C 5.015625 23.871094 4.957031 23.855469 4.910156 23.847656 C 4.816406 23.839844 4.738281 23.847656 4.648438 23.878906 C 4.480469 23.949219 4.375 24.09375 4.289062 24.207031 C 4.128906 24.429688 3.910156 24.597656 3.675781 24.710938 C 3.445312 24.824219 3.203125 24.867188 3 24.839844 C 2.804688 24.8125 2.648438 24.726562 2.554688 24.648438 C 2.546875 24.628906 2.53125 24.613281 2.523438 24.597656 C 2.488281 24.519531 2.457031 24.402344 2.386719 24.296875 C 2.328125 24.191406 2.246094 24.105469 2.1875 24.027344 C 2.066406 23.878906 2.023438 23.695312 2.007812 23.484375 C 2.003906 23.433594 2 23.386719 2 23.332031 Z M 4.792969 20.824219 C 4.6875 20.871094 4.589844 20.90625 4.5 20.921875 C 4.410156 20.941406 4.328125 20.953125 4.265625 20.953125 C 4.199219 20.957031 4.148438 20.953125 4.113281 20.949219 C 4.078125 20.945312 4.0625 20.945312 4.0625 20.945312 C 4.0625 20.945312 4.078125 20.945312 4.113281 20.941406 C 4.148438 20.9375 4.199219 20.933594 4.261719 20.921875 C 4.324219 20.914062 4.402344 20.898438 4.484375 20.867188 C 4.566406 20.839844 4.65625 20.796875 4.746094 20.742188 C 4.929688 20.628906 5.113281 20.457031 5.269531 20.238281 C 5.34375 20.132812 5.417969 20.011719 5.480469 19.890625 C 5.546875 19.761719 5.605469 19.628906 5.679688 19.496094 C 5.753906 19.359375 5.84375 19.230469 5.957031 19.121094 C 6.066406 19.011719 6.207031 18.917969 6.351562 18.871094 C 6.496094 18.820312 6.65625 18.804688 6.800781 18.835938 C 6.941406 18.867188 7.0625 18.941406 7.152344 19.019531 C 7.332031 19.179688 7.414062 19.355469 7.464844 19.476562 C 7.492188 19.535156 7.507812 19.585938 7.515625 19.617188 C 7.527344 19.652344 7.53125 19.667969 7.53125 19.667969 C 7.53125 19.667969 7.488281 19.609375 7.414062 19.503906 C 7.335938 19.40625 7.21875 19.261719 7.050781 19.148438 C 6.964844 19.09375 6.867188 19.046875 6.761719 19.035156 C 6.65625 19.019531 6.539062 19.03125 6.425781 19.074219 C 6.195312 19.152344 6.003906 19.355469 5.855469 19.597656 C 5.78125 19.714844 5.714844 19.847656 5.640625 19.972656 C 5.566406 20.105469 5.480469 20.222656 5.394531 20.335938 C 5.214844 20.554688 5 20.726562 4.792969 20.824219 Z M 5.582031 20.527344 C 5.753906 20.445312 5.863281 20.324219 5.992188 20.082031 C 6.054688 19.96875 6.164062 19.855469 6.269531 19.785156 C 6.460938 19.648438 6.796875 19.484375 7.03125 19.777344 C 6.902344 19.679688 6.757812 19.6875 6.621094 19.730469 C 6.652344 19.746094 6.679688 19.761719 6.699219 19.789062 C 6.789062 19.890625 6.757812 20.054688 6.648438 20.183594 C 6.582031 20.234375 6.511719 20.273438 6.441406 20.308594 C 6.402344 20.332031 6.367188 20.34375 6.332031 20.363281 C 6.242188 20.367188 6.164062 20.339844 6.113281 20.28125 C 6.089844 20.253906 6.078125 20.21875 6.070312 20.183594 C 5.9375 20.414062 5.78125 20.460938 5.617188 20.539062 C 5.59375 20.535156 5.582031 20.53125 5.582031 20.527344 Z M 7.929688 18.996094 C 8.121094 19.410156 8.421875 19.773438 8.796875 20.027344 C 8.890625 20.089844 8.988281 20.148438 9.089844 20.199219 C 9.1875 20.25 9.292969 20.292969 9.398438 20.332031 C 9.613281 20.398438 9.839844 20.449219 10.058594 20.503906 C 10.503906 20.601562 10.957031 20.6875 11.40625 20.660156 C 11.519531 20.65625 11.628906 20.644531 11.742188 20.621094 C 11.851562 20.601562 11.960938 20.574219 12.066406 20.535156 C 12.246094 20.476562 12.421875 20.394531 12.589844 20.304688 C 12.226562 20.109375 11.882812 19.882812 11.574219 19.605469 C 11.492188 19.527344 11.410156 19.449219 11.339844 19.359375 C 11.265625 19.273438 11.203125 19.1875 11.128906 19.109375 C 10.976562 18.953125 10.808594 18.8125 10.628906 18.6875 C 10.273438 18.4375 9.863281 18.246094 9.425781 18.199219 C 9.320312 18.1875 9.210938 18.1875 9.101562 18.199219 C 8.992188 18.207031 8.886719 18.234375 8.78125 18.269531 C 8.671875 18.296875 8.570312 18.335938 8.464844 18.378906 C 8.367188 18.421875 8.269531 18.476562 8.179688 18.539062 C 8.265625 18.472656 8.359375 18.414062 8.460938 18.363281 C 8.5625 18.320312 8.664062 18.273438 8.769531 18.242188 C 8.875 18.207031 8.984375 18.171875 9.09375 18.15625 C 9.207031 18.140625 9.320312 18.136719 9.433594 18.144531 C 9.882812 18.179688 10.304688 18.371094 10.679688 18.617188 C 10.867188 18.738281 11.039062 18.882812 11.195312 19.042969 C 11.277344 19.125 11.347656 19.21875 11.414062 19.296875 C 11.484375 19.378906 11.5625 19.457031 11.640625 19.53125 C 11.96875 19.820312 12.34375 20.058594 12.730469 20.257812 L 12.734375 20.257812 L 12.753906 20.28125 C 12.769531 20.304688 12.761719 20.339844 12.734375 20.355469 C 12.53125 20.464844 12.320312 20.566406 12.097656 20.636719 C 11.988281 20.671875 11.875 20.703125 11.757812 20.722656 C 11.644531 20.746094 11.527344 20.757812 11.410156 20.761719 C 10.945312 20.78125 10.484375 20.695312 10.039062 20.585938 C 9.816406 20.527344 9.597656 20.472656 9.375 20.398438 C 9.269531 20.355469 9.160156 20.308594 9.058594 20.253906 C 8.957031 20.199219 8.859375 20.140625 8.765625 20.070312 C 8.390625 19.796875 8.105469 19.417969 7.929688 18.996094 Z M 8.195312 18.789062 C 8.195312 18.789062 9.34375 18.203125 10.503906 19.148438 C 11.660156 20.09375 12.148438 20.371094 12.148438 20.371094 C 12.148438 20.371094 11.476562 20.601562 10.601562 20.429688 C 9.722656 20.257812 8.828125 20.023438 8.371094 19.484375 C 8.085938 19.144531 7.960938 18.90625 8.003906 18.886719 C 8.105469 18.839844 8.160156 18.804688 8.195312 18.789062 "/>
<path style=" stroke:none;fill-rule:nonzero;fill:rgb(21.958923%,71.369934%,100%);fill-opacity:1;" d="M 4.449219 18.695312 C 3.804688 18.710938 3.351562 18.597656 2.808594 18.1875 C 2.941406 18.136719 3.199219 18.03125 3.480469 17.871094 C 3.632812 17.894531 3.789062 17.910156 3.960938 17.921875 C 3.359375 18.238281 3.101562 18.335938 3.101562 18.335938 C 3.101562 18.335938 3.664062 18.632812 4.484375 18.636719 C 4.472656 18.65625 4.460938 18.675781 4.449219 18.695312 "/>
<path style=" stroke:none;fill-rule:nonzero;fill:rgb(21.958923%,71.369934%,100%);fill-opacity:1;" d="M 2.640625 23.347656 C 2.726562 23.242188 2.804688 23.101562 2.953125 22.96875 C 3.03125 22.902344 3.132812 22.851562 3.246094 22.835938 C 3.355469 22.816406 3.464844 22.835938 3.5625 22.859375 C 3.609375 22.871094 3.660156 22.882812 3.714844 22.914062 C 3.777344 22.945312 3.824219 22.988281 3.859375 23.050781 C 3.929688 23.171875 3.90625 23.308594 3.863281 23.402344 C 3.765625 23.597656 3.589844 23.699219 3.441406 23.734375 C 3.289062 23.773438 3.160156 23.746094 3.082031 23.71875 C 3 23.691406 2.960938 23.664062 2.960938 23.664062 C 2.960938 23.664062 3.007812 23.671875 3.089844 23.671875 C 3.167969 23.671875 3.285156 23.660156 3.398438 23.609375 C 3.511719 23.554688 3.628906 23.453125 3.675781 23.324219 C 3.699219 23.261719 3.699219 23.195312 3.671875 23.15625 C 3.660156 23.136719 3.636719 23.117188 3.617188 23.109375 C 3.589844 23.09375 3.546875 23.078125 3.507812 23.066406 C 3.339844 23.019531 3.191406 23.023438 3.070312 23.113281 C 2.945312 23.203125 2.835938 23.335938 2.726562 23.429688 C 2.617188 23.523438 2.507812 23.585938 2.429688 23.617188 C 2.347656 23.644531 2.304688 23.652344 2.304688 23.652344 C 2.304688 23.652344 2.34375 23.628906 2.40625 23.582031 C 2.472656 23.53125 2.554688 23.453125 2.640625 23.347656 "/>
<path style=" stroke:none;fill-rule:nonzero;fill:rgb(21.958923%,71.369934%,100%);fill-opacity:1;" d="M 9.148438 30.824219 L 9.160156 30.785156 L 9.210938 30.808594 L 9.316406 30.71875 L 9.3125 30.710938 L 9.320312 30.710938 L 9.34375 30.601562 L 9.34375 30.59375 C 9.386719 30.605469 9.433594 30.613281 9.480469 30.589844 L 9.546875 30.554688 L 9.539062 30.484375 L 9.601562 30.515625 L 9.652344 30.425781 C 9.703125 30.335938 9.765625 30.226562 9.800781 30.179688 L 9.839844 30.179688 L 9.863281 30.105469 C 9.867188 30.09375 9.875 30.078125 9.871094 30.039062 L 9.886719 30.042969 L 9.914062 29.929688 L 10 29.882812 C 9.996094 29.875 9.992188 29.855469 9.988281 29.828125 C 10.027344 29.8125 10.0625 29.796875 10.085938 29.777344 L 10.25 29.648438 L 10.050781 29.585938 C 10.035156 29.574219 10.035156 29.582031 10.023438 29.566406 C 10.019531 29.554688 10.007812 29.539062 9.992188 29.523438 L 10.066406 29.449219 L 10.230469 29.441406 L 10.234375 29.441406 L 10.09375 29.316406 C 10.167969 29.328125 10.25 29.34375 10.332031 29.363281 C 10.425781 29.382812 10.523438 29.40625 10.621094 29.4375 C 10.71875 29.472656 10.738281 29.542969 10.71875 29.71875 C 10.714844 29.75 10.710938 29.785156 10.703125 29.824219 C 10.695312 29.886719 10.683594 29.945312 10.679688 30 C 10.675781 30.082031 10.667969 30.171875 10.664062 30.265625 C 10.65625 30.375 10.644531 30.488281 10.636719 30.605469 C 10.605469 30.980469 10.5625 31.390625 10.519531 31.71875 C 10.515625 31.734375 10.515625 31.75 10.511719 31.765625 C 10.476562 31.710938 10.433594 31.65625 10.378906 31.609375 C 10.339844 31.578125 10.292969 31.550781 10.246094 31.527344 C 10.195312 31.496094 10.148438 31.480469 10.105469 31.464844 L 10.085938 31.460938 L 10.074219 31.457031 L 10.070312 31.453125 L 10.046875 31.441406 L 10.035156 31.4375 C 10.027344 31.433594 10.015625 31.425781 10.003906 31.421875 C 9.980469 31.410156 9.957031 31.390625 9.9375 31.375 L 9.917969 31.359375 C 9.894531 31.339844 9.871094 31.320312 9.851562 31.296875 C 9.820312 31.265625 9.789062 31.234375 9.761719 31.207031 C 9.667969 31.101562 9.59375 31.023438 9.59375 31.023438 C 9.59375 31.023438 9.570312 31.132812 9.613281 31.285156 C 9.621094 31.3125 9.632812 31.34375 9.648438 31.378906 L 9.65625 31.402344 C 9.667969 31.429688 9.679688 31.453125 9.699219 31.476562 C 9.710938 31.496094 9.722656 31.511719 9.734375 31.527344 C 9.746094 31.542969 9.757812 31.550781 9.769531 31.5625 C 9.792969 31.59375 9.824219 31.621094 9.859375 31.644531 C 9.886719 31.660156 9.910156 31.679688 9.941406 31.6875 L 10.019531 31.714844 C 10.066406 31.726562 10.109375 31.746094 10.144531 31.753906 C 10.183594 31.765625 10.222656 31.78125 10.253906 31.800781 C 10.324219 31.828125 10.382812 31.867188 10.429688 31.910156 C 10.449219 31.929688 10.464844 31.953125 10.480469 31.972656 C 10.449219 32.15625 10.417969 32.28125 10.398438 32.351562 C 10.363281 32.328125 10.324219 32.292969 10.289062 32.261719 C 10.238281 32.222656 10.191406 32.179688 10.144531 32.152344 C 9.945312 32.019531 9.738281 31.867188 9.566406 31.640625 C 9.554688 31.628906 9.546875 31.617188 9.539062 31.605469 C 9.507812 31.566406 9.480469 31.53125 9.453125 31.496094 L 9.4375 31.476562 C 9.277344 31.273438 9.164062 31.125 9.097656 30.898438 L 9.113281 30.910156 L 9.148438 30.824219 "/>
<path style=" stroke:none;fill-rule:nonzero;fill:rgb(21.958923%,71.369934%,100%);fill-opacity:1;" d="M 0.0859375 14.046875 C 0.140625 13.507812 0.320312 13.167969 0.394531 13.121094 C 0.398438 13.132812 0.402344 13.152344 0.40625 13.1875 C 0.425781 13.636719 0.621094 15.167969 2.332031 16.074219 C 2.625 16.230469 2.90625 16.355469 3.1875 16.449219 C 3.800781 16.660156 4.347656 16.71875 4.957031 16.761719 C 4.996094 16.765625 5.039062 16.769531 5.078125 16.773438 C 5.121094 16.777344 5.164062 16.777344 5.203125 16.78125 L 5.21875 16.78125 C 5.433594 16.796875 5.652344 16.816406 5.886719 16.835938 C 5.933594 16.839844 5.984375 16.847656 6.035156 16.851562 C 6.0625 16.855469 6.089844 16.855469 6.117188 16.859375 C 6.128906 16.859375 6.140625 16.863281 6.152344 16.863281 C 6.160156 16.863281 6.171875 16.867188 6.179688 16.867188 L 6.199219 16.867188 C 6.566406 16.910156 6.960938 17.0625 7.367188 17.316406 C 7.402344 17.339844 7.4375 17.359375 7.472656 17.382812 C 7.519531 17.414062 7.566406 17.449219 7.617188 17.484375 C 7.6875 17.535156 7.757812 17.589844 7.828125 17.644531 C 7.957031 17.746094 8.085938 17.855469 8.21875 17.972656 C 8.214844 18.023438 8.179688 18.097656 8.109375 18.175781 C 8.070312 18.214844 8.015625 18.265625 7.9375 18.308594 C 7.910156 18.324219 7.878906 18.339844 7.847656 18.355469 C 7.820312 18.367188 7.789062 18.378906 7.757812 18.386719 C 7.617188 18.4375 7.429688 18.46875 7.1875 18.460938 C 7.023438 18.453125 6.875 18.425781 6.734375 18.390625 C 6.707031 18.382812 6.679688 18.378906 6.652344 18.367188 L 6.621094 18.359375 C 6.605469 18.355469 6.59375 18.347656 6.578125 18.34375 C 6.558594 18.335938 6.542969 18.328125 6.527344 18.320312 L 6.503906 18.3125 C 6.285156 18.214844 6.144531 18.09375 6.050781 18.003906 C 6 17.957031 5.957031 17.921875 5.917969 17.898438 C 5.90625 17.894531 5.894531 17.890625 5.878906 17.882812 C 5.753906 17.839844 5.492188 17.828125 5.132812 17.824219 L 5.074219 17.824219 C 4.96875 17.824219 4.859375 17.824219 4.738281 17.824219 C 4.597656 17.824219 4.445312 17.824219 4.289062 17.820312 C 4.242188 17.820312 4.199219 17.820312 4.152344 17.816406 C 3.96875 17.8125 3.796875 17.800781 3.632812 17.78125 C 3.605469 17.777344 3.578125 17.773438 3.546875 17.769531 C 3.515625 17.765625 3.488281 17.761719 3.457031 17.757812 C 2.976562 17.691406 2.617188 17.582031 2.449219 17.527344 C 2.335938 17.488281 2.234375 17.445312 2.171875 17.414062 C 0.078125 16.355469 0.015625 14.707031 0.0859375 14.046875 "/>
</g>
</svg>
